<svg xmlns="http://www.w3.org/2000/svg" xmlns:xlink="http://www.w3.org/1999/xlink" width="16" height="16" viewBox="0 0 16 16">
  <defs>
    <clipPath id="clip-target_icon_gray">
      <rect width="16" height="16"/>
    </clipPath>
  </defs>
  <g id="target_icon_gray" clip-path="url(#clip-target_icon_gray)">
    <g id="target_cf_icon" transform="translate(-70 -256)">
      <g id="target_cf_icon-2" data-name="target_cf_icon" transform="translate(72 256)">
        <path id="Path_1407" data-name="Path 1407" d="M232.086,653.775a1.861,1.861,0,0,1,.33-.086,2.331,2.331,0,0,1,.382-.041s-.006-.038-.015-.1a.825.825,0,0,0-.062-.2l-.043-.106c-.017-.034-.038-.064-.054-.091l-.054-.086a3.776,3.776,0,0,1-.394-.08,3.337,3.337,0,0,1-.356-.109,1.566,1.566,0,0,1-.491-.266.306.306,0,0,1-.139-.273.224.224,0,0,1,.064-.12.419.419,0,0,1,.143-.1l-.119-.06c-.036-.017-.075-.038-.122-.059s-.1-.042-.15-.064c-.1-.042-.2-.085-.284-.113l-.133-.048a2.944,2.944,0,0,1-.309.019c-.111,0-.224,0-.334-.008a3.619,3.619,0,0,1-.627-.093,1.7,1.7,0,0,1-.255-.079,1.244,1.244,0,0,1-.191-.09c-.1-.065-.168-.131-.168-.2l-.15-.022c-.094-.013-.294-.037-.421-.052,0,.019-.016.037-.021.068l-.032.139a.54.54,0,0,0,.419.637,2.141,2.141,0,0,1,1.477.906c.33.793-1.057,1.569-3.166,1.569s-3.5-.777-3.167-1.57a2.091,2.091,0,0,1,1.424-.891.572.572,0,0,0,.44-.67l-.044-.188-.282.031c-.125.012-.245.032-.336.045l-.153.023c.006.065-.045.137-.144.2a1.3,1.3,0,0,1-.179.094,2.331,2.331,0,0,1-.246.082,2.688,2.688,0,0,1-.3.062q-.161.027-.324.038a3.793,3.793,0,0,1-.653,0l-.037.013c-.021.009-.058.02-.095.036l-.277.118c-.1.043-.189.093-.262.128l-.086.043-.03.018c.141.057.219.137.235.221.035.088-.013.18-.1.28a1.326,1.326,0,0,1-.2.145,1.859,1.859,0,0,1-.283.134,3.354,3.354,0,0,1-.749.206.4.4,0,0,0-.043.089l-.079.2c-.012.074-.024.15-.033.208a.294.294,0,0,0-.006.1,2.349,2.349,0,0,1,.745.116.926.926,0,0,1,.467.287.416.416,0,0,1,.043.426,1.039,1.039,0,0,1-.424.483l.035.027.107.068c.092.056.207.136.343.208l.4.195c.055.027.11.045.145.059l.057.022a3.9,3.9,0,0,1,1.024-.221,3.376,3.376,0,0,1,.51-.011,3.105,3.105,0,0,1,.5.053,3.224,3.224,0,0,1,.446.126,2.661,2.661,0,0,1,.374.188,1.13,1.13,0,0,1,.483.545l.3.01c.179,0,.416.019.653.007s.475-.01.651-.02l.29-.025a.76.76,0,0,1,.152-.3,1.02,1.02,0,0,1,.124-.129,1.46,1.46,0,0,1,.5-.315,2.218,2.218,0,0,1,.428-.137,4.308,4.308,0,0,1,.483-.068c.166-.01.343,0,.508,0a3.985,3.985,0,0,1,1.036.2l.18-.089a3.271,3.271,0,0,0,.365-.2c.116-.077.238-.15.312-.211s.119-.1.119-.1a1.287,1.287,0,0,1-.471-.466.465.465,0,0,1-.055-.218.287.287,0,0,1,.055-.2.763.763,0,0,1,.408-.293" transform="translate(-220.798 -640.355)" fill="#929292"/>
        <path id="Path_1408" data-name="Path 1408" d="M245.544,91.492s.313-1.057-1.047-2.42l-.045-.042a3.147,3.147,0,0,1-.889-2.163,3.59,3.59,0,0,1,3.776-3.36h.087a3.591,3.591,0,0,1,3.777,3.36,3.147,3.147,0,0,1-.888,2.161c-.007.007-.021.021-.045.042a2.993,2.993,0,0,0-1.048,2.421,4.982,4.982,0,0,0,3.708-4.6c.017-2.59-2.331-4.8-5.233-4.922l-.107,0-.206,0-.206,0c-.036,0-.072,0-.107,0-2.9.124-5.25,2.332-5.234,4.923A4.981,4.981,0,0,0,245.544,91.492Z" transform="translate(-241.385 -81.97)" fill="#929292"/>
        <path id="Path_1410" data-name="Path 1410" d="M375.027,231.192a1.933,1.933,0,0,0,.872-1.568c-.011-1.176-1.259-2.123-2.786-2.123s-2.775.947-2.786,2.123a1.934,1.934,0,0,0,.872,1.568,3.368,3.368,0,0,1,1.254,2.547,32.528,32.528,0,0,1-.112,3.277c-.718.091-1.222.3-1.222.553,0,.331.893.713,1.994.713s1.994-.383,1.994-.713c0-.249-.5-.462-1.222-.553a32.6,32.6,0,0,1-.112-3.277A3.37,3.37,0,0,1,375.027,231.192Z" transform="translate(-367.112 -224.715)" fill="#929292"/>
      </g>
      <rect id="Rectangle_522" data-name="Rectangle 522" width="16" height="16" transform="translate(70 256)" fill="none"/>
    </g>
  </g>
</svg>
