<svg xmlns="http://www.w3.org/2000/svg" width="28" height="28">
    <style>fill:#000000</style>
    <g transform="scale(0.0556)">
        <path class="inside" d="M190 174.1 c-.1 16.4 7.8 31.1 20.6 41.6 15.8 12.9 28.8 39 29.6 67.5.8 31.6 -1.3 68.2 -2.6 86.8 -16.9 2.4 -28.8 8.1 -28.8 14.7 0 8.8 21.1 18.9 47.1 18.9 s47.1 -10.1 47.1 -18.9 c0 -6.6 -11.9 -12.3 -28.8 -14.7 -1.3 -18.6 -3.5 -55.2 -2.6 -86.8 0.8 -28.5 13.7 -54.6 29.6 -67.5 12.8 -10.4 20.7 -25.2 20.6 -41.6 -.3 -31.2 -29.7 -56.3 -65.8 -56.3 -36.3 0 -65.7 25.1 -66 56.3z" />
        <path class="outside" d="M380.8 399.6 c2.3 -.9 4.9 -1.7 7.8 -2.3 2.7 -.6 5.7 -1 9 -1.1 0 0 -.1 -1 -.3 -2.5 -.1 -1.5 -.8 -3.5 -1.5 -5.4 -.3 -1 -.7 -1.9 -1 -2.8 -.4 -.9 -.9 -1.7 -1.3 -2.4 -.8 -1.4 -1.3 -2.3 -1.3 -2.3 -3.2 -.5 -6.3 -1.3 -9.3 -2.1 -3 -.8 -5.9 -1.8 -8.4 -2.9 -4.7 -2.1 -9.2 -4.4 -11.6 -7 -2.9 -2.5 -3.4 -5 -3.3 -7.2.1 -1.1.7 -2.2 1.5 -3.2s1.9 -1.9 3.4 -2.6 c0 0 -1.1 -.6 -2.8 -1.6 -.8 -.5 -1.8 -1 -2.9 -1.6 -1.1 -.5 -2.3 -1.1 -3.5 -1.7 -2.4 -1.1 -4.7 -2.3 -6.7 -3 -1.9 -.8 -3.1 -1.3 -3.1 -1.3 -2.3.3 -4.8.5 -7.3.5 -2.6 0 -5.3 0 -7.9 -.2 -5.1 -.4 -10.3 -1.2 -14.8 -2.5 -2.3 -.6 -4.3 -1.3 -6 -2.1 -1.7 -.8 -3.3 -1.5 -4.5 -2.4 -2.4 -1.7 -4 -3.5 -4 -5.2 0 0 -1.4 -.2 -3.6 -.6 -2.2 -.3 -6.9 -1 -9.9 -1.4 -.1.5 -.4 1 -.5 1.8l -.8 3.7 c-1.5 7.3 2.7 14.8 9.9 16.9 17.6 5.1 31 13.6 34.9 24 7.8 21 -25 41.5 -74.7 41.5s -82.5 -20.5 -74.7 -41.5 c3.8 -10.1 16.6 -18.5 33.6 -23.6 7.5 -2.3 12 -10 10.4 -17.7l -1 -5 c-2 .2 -4.3.5 -6.6.8 -3 .3 -5.8.8 -7.9 1.2 -2.2.4 -3.6.6 -3.6.6.2 1.7 -1.1 3.6 -3.4 5.3 -1.2.8 -2.5 1.7 -4.2 2.5s -3.7 1.5 -5.8 2.2 c-2.2.7 -4.7 1.2 -7.1 1.6 -2.4.5 -5 .8 -7.6 1 -5.3.4 -10.6.5 -15.4 -.1l -.9.3 c-.5.2 -1.4.5 -2.2 1 -1.8.8 -4.1 2 -6.5 3.1 -2.4 1.2 -4.5 2.5 -6.2 3.4 -.8.5 -1.5.9 -2 1.2 -.4.3 -.7.5 -.7.5 3.3 1.5 5.2 3.6 5.6 5.8.8 2.3 -.3 4.8 -2.5 7.4 -1.3 1.3 -3 2.6 -4.7 3.8 -1.8 1.3 -4.1 2.4 -6.7 3.6 -4.8 2.3 -11 4.3 -17.7 5.5 0 0 -.6.9 -1 2.4 -.5 1.4 -1.2 3.4 -1.9 5.4 -.3 2 -.6 4 -.8 5.5 -.3 1.6 -.1 2.6 -.1 2.6 6.9.1 13 1.2 17.6 3.1 5.3 1.8 8.5 4.4 11 7.6 2 3.5 2.7 7.1 1 11.3 -1.2 4.1 -4.6 8.6 -10 12.8 0 0 .3.3.8.7.6.4 1.5 1.1 2.5 1.8 2.2 1.5 4.9 3.6 8.1 5.5 3.4 1.9 6.8 3.7 9.4 5.2 1.3.7 2.6 1.2 3.4 1.6.8.4 1.3.6 1.3.6 7.7 -3.3 15.9 -5 24.2 -5.9 4.1 -.4 8.2 -.6 12 -.3 3.9.2 8 .5 11.7 1.4 3.7 1 7.3 1.9 10.5 3.3s6.1 3.2 8.8 5 c5.4 3.7 9.6 9 11.4 14.4 0 0 2.8.1 7 .3 4.2.1 9.8.5 15.4.2 5.6 -.2 11.2 -.3 15.4 -.6 4.1 -.4 6.8 -.6 6.8 -.6.6 -2.9 1.9 -5.6 3.6 -8 .9 -1.2 1.8 -2.4 2.9 -3.4 1 -1.1 2.2 -2.2 3.4 -3.2 2.4 -2 5.2 -3.7 8.4 -5.1 3.1 -1.5 6.3 -2.8 10.1 -3.6 3.8 -.8 7.5 -1.5 11.4 -1.8s8.1 -.1 12 0 c8 .4 16.8 2.3 24.5 5.2 0 0 1.7 -1 4.2 -2.4s5.9 -3.2 8.6 -5.3 c2.7 -2 5.6 -4 7.4 -5.6 1.7 -1.6 2.8 -2.6 2.8 -2.6 -5.7 -3.9 -9 -8.2 -11.1 -12.4 -1 -2 -1.2 -3.9 -1.3 -5.8 -.1 -1.9.3 -3.6 1.3 -5.3 1.5 -3.5 5.3 -5.9 9.6 -7.9z M212.6 296.3s7.4 -28 -24.7 -64.1l -1.1 -1.1 c-13.5 -16 -21 -36.4 -21 -57.3 0 -49.1 40 -89 89.1 -89h2.1 c49.2 0 89.1 39.9 89.1 89 0 20.9 -7.5 41.3 -21 57.3 -.1.2 -.5.6 -1.1 1.1 -28.5 28.5 -24.7 64.1 -24.7 64.1 52.1 -18 87.2 -66.9 87.5 -121.8.4 -68.6 -55 -127.2 -123.5 -130.4h -2.6 c-1 0 -4.9.1 -4.9.1 -.1 0 -3.8 -.1 -4.9 -.1h -2.5 c-68.5 3.3 -123.9 61.8 -123.5 130.4.5 54.9 35.6 103.9 87.7 121.8z" />
    </g>
</svg>