<svg xmlns="http://www.w3.org/2000/svg" xmlns:xlink="http://www.w3.org/1999/xlink" width="16" height="16" viewBox="0 0 16 16">
  <defs>
    <clipPath id="clip-cftarget_light">
      <rect width="16" height="16"/>
    </clipPath>
  </defs>
  <g id="cftarget_light" clip-path="url(#clip-cftarget_light)">
    <g id="Component_33_1" data-name="Component 33 – 1" transform="translate(2.989 0.433)">
      <path id="Path_1407" data-name="Path 1407" d="M231.228,653.706a1.637,1.637,0,0,1,.305-.083,2.042,2.042,0,0,1,.353-.04s-.006-.037-.014-.093a.834.834,0,0,0-.058-.2l-.04-.1c-.016-.033-.035-.063-.05-.089l-.049-.084a3.332,3.332,0,0,1-.364-.077,2.96,2.96,0,0,1-.329-.106,1.431,1.431,0,0,1-.454-.259.3.3,0,0,1-.129-.265.222.222,0,0,1,.06-.117.387.387,0,0,1,.132-.1l-.11-.058c-.033-.017-.07-.037-.112-.057s-.092-.041-.139-.062c-.093-.041-.185-.083-.262-.11l-.123-.047a2.618,2.618,0,0,1-.286.018c-.1,0-.207,0-.308-.008a3.2,3.2,0,0,1-.579-.091,1.518,1.518,0,0,1-.236-.077,1.131,1.131,0,0,1-.177-.087c-.092-.063-.156-.128-.155-.192l-.139-.021c-.087-.013-.272-.036-.389-.051,0,.019-.015.036-.02.067l-.03.135a.526.526,0,0,0,.388.62,1.973,1.973,0,0,1,1.365.881c.305.772-.976,1.527-2.925,1.527s-3.23-.756-2.926-1.528a1.928,1.928,0,0,1,1.316-.867.557.557,0,0,0,.407-.652l-.041-.183-.26.03c-.116.012-.226.031-.311.044l-.142.022c.006.063-.042.133-.133.194a1.177,1.177,0,0,1-.165.091,2.068,2.068,0,0,1-.227.08,2.374,2.374,0,0,1-.278.06,2.882,2.882,0,0,1-.3.037,3.326,3.326,0,0,1-.6,0l-.034.013c-.02.009-.054.02-.088.035l-.256.115c-.094.042-.175.09-.242.125l-.079.042-.028.017c.13.056.2.133.217.215.033.086-.012.175-.1.273a1.226,1.226,0,0,1-.183.141,1.677,1.677,0,0,1-.262.13,2.98,2.98,0,0,1-.692.2.391.391,0,0,0-.04.087l-.073.2c-.011.072-.022.146-.031.2a.3.3,0,0,0-.006.095,2.072,2.072,0,0,1,.688.113.85.85,0,0,1,.432.279.422.422,0,0,1,.04.415,1,1,0,0,1-.392.47l.033.027.1.066c.085.055.191.132.316.2l.368.189c.05.027.1.043.134.057l.053.021a3.46,3.46,0,0,1,.947-.215,2.974,2.974,0,0,1,.472-.011,2.739,2.739,0,0,1,.459.052,2.861,2.861,0,0,1,.413.122,2.4,2.4,0,0,1,.346.183,1.083,1.083,0,0,1,.447.53l.274.01c.165,0,.385.018.6.007s.439-.01.6-.02l.268-.024a.755.755,0,0,1,.141-.295.952.952,0,0,1,.115-.125,1.339,1.339,0,0,1,.46-.306,1.978,1.978,0,0,1,.4-.133,3.792,3.792,0,0,1,.446-.066,4.542,4.542,0,0,1,.469,0,3.517,3.517,0,0,1,.958.191l.166-.087a2.983,2.983,0,0,0,.337-.2c.107-.075.22-.145.289-.2s.11-.1.11-.1a1.223,1.223,0,0,1-.435-.454.471.471,0,0,1-.051-.212.29.29,0,0,1,.051-.194.708.708,0,0,1,.377-.286" transform="translate(-220.798 -640.65)" fill="#5d5d5d"/>
      <path id="Path_1408" data-name="Path 1408" d="M245.263,91.234s.289-1.028-.968-2.355l-.042-.041a3.148,3.148,0,0,1-.821-2.1,3.388,3.388,0,0,1,3.489-3.269H247a3.388,3.388,0,0,1,3.489,3.269,3.148,3.148,0,0,1-.821,2.1c-.006.007-.02.021-.042.041a3,3,0,0,0-.968,2.355,4.8,4.8,0,0,0,3.427-4.472,4.959,4.959,0,0,0-4.835-4.789l-.1,0-.191,0-.19,0c-.033,0-.066,0-.1,0a4.96,4.96,0,0,0-4.836,4.79A4.8,4.8,0,0,0,245.263,91.234Z" transform="translate(-241.419 -81.97)" fill="#5d5d5d"/>
      <path id="Path_1410" data-name="Path 1410" d="M374.669,231.092a1.907,1.907,0,0,0,.806-1.526,2.637,2.637,0,0,0-5.149,0,1.908,1.908,0,0,0,.806,1.526,3.338,3.338,0,0,1,1.158,2.478c.033,1.161-.051,2.5-.1,3.188-.663.088-1.129.3-1.129.538,0,.322.825.694,1.842.694s1.842-.372,1.842-.694c0-.242-.466-.45-1.129-.538-.052-.684-.136-2.027-.1-3.188A3.34,3.34,0,0,1,374.669,231.092Z" transform="translate(-367.357 -224.79)" fill="#5d5d5d"/>
    </g>
  </g>
</svg>
